<?xml version="1.0" encoding="UTF-8"?>
<!DOCTYPE svg PUBLIC "-//W3C//DTD SVG 1.1//EN" "http://www.w3.org/Graphics/SVG/1.1/DTD/svg11.dtd">
<!-- Creator: CorelDRAW 2019 (64-Bit) -->
<svg xmlns="http://www.w3.org/2000/svg" xml:space="preserve" width="116.169mm" height="172.97mm" version="1.1" style="shape-rendering:geometricPrecision; text-rendering:geometricPrecision; image-rendering:optimizeQuality; fill-rule:evenodd; clip-rule:evenodd"
viewBox="0 0 12893.15 19197.31"
 xmlns:xlink="http://www.w3.org/1999/xlink">
 <defs>
  <style type="text/css">
   <![CDATA[
    .fil2 {fill:#FEFEFE}
    .fil1 {fill:#FEFEFE}
    .fil0 {fill:#EA5E20}
   ]]>
  </style>
 </defs>
 <g id="Слой_x0020_1">
  <metadata id="CorelCorpID_0Corel-Layer"/>
  <polygon class="fil0" points="10872.25,0 12590.04,1712.24 12590.04,12583.88 1711.73,12583.88 -0,10873.51 -0,0 "/>
  <path class="fil1" d="M1730.36 14668.59c172.58,0 349.95,13.85 514.73,78.56 153.07,55.88 288.4,150.93 403.32,302.74 109.77,148.29 191.72,320.87 246.86,522.03 51.61,196.88 80.56,421.2 80.56,670.44 0,274.17 -31.6,520.9 -98.82,743.83 -4.78,33.36 -19.13,67.6 -33.35,104.99 -62.44,179.89 -149.68,342.15 -254.16,485.65 -130.92,171.7 -280.59,303.62 -456.2,389.85 -170.06,84.59 -362.54,127.52 -575.91,127.52 -181.77,0 -350.07,-37.27 -507.43,-115.81l0 2.14c-22.53,-13.85 -48.97,-25.94 -72.51,-42.93 -84.97,-49.34 -161.25,-108 -235.4,-181.27l0 1440.97 -710.85 0 0 -4523.92c565.96,0 1133.69,-4.78 1699.15,-4.78zm-990.44 2460.23l0 0c126.51,132.31 249.75,233.38 372.11,300.61 122.23,67.6 246.72,100.95 365.93,100.95l1.27 0c117.94,0 223.44,-25.05 311.05,-77.53 15.98,-6.93 31.6,-16.12 41.16,-24.81 74.52,-52.86 136.2,-122.73 192.97,-208.08l2.64 0c31.22,-54.76 58.92,-111.91 84.09,-177.88 25.55,-63.32 48.59,-134.81 64.57,-210.34 32.61,-152.2 53,-327.8 53,-529.46 0,-364.68 -55.5,-638.35 -163.52,-814.46 -101.09,-165.28 -252.39,-245.47 -456.7,-245.47l-868.59 0 0 1886.46z"/>
  <polygon class="fil1" points="11766.9,14673.38 12569.26,14673.38 11236.05,16185.6 12893.15,18021.33 11931.67,18021.33 10358.78,16272.83 "/>
  <polygon class="fil1" points="9593.8,17958.51 9593.8,13590.54 10307.55,13590.54 10307.55,17958.51 10307.55,18021.33 10242.09,18021.33 9655.73,18021.33 9593.8,18021.33 "/>
  <path class="fil1" d="M6730.25 14673.38l712.49 0 0 474.44 16.49 -22.53c48.09,-56.01 96.3,-108.89 149.17,-154.46 267.12,-244.46 589.38,-368.95 966.27,-368.95 89.25,0 185.18,6.41 290.16,18.62 99.19,14.73 207.7,32.99 322.64,55.02l48.46 13.47 0 49.84 0 915.54 0 62.82 -64.07 0 -439.33 0 -62.05 0 0 -62.82 0 -398.54c-19.51,-3.91 -47.34,-8.31 -68.99,-9.57 -34.62,-3.91 -70.62,-6.93 -104.48,-6.93 -108.89,0 -205.93,12.59 -299.22,36.38 -92.4,25.68 -177.87,61.55 -259.82,109.39 -80.19,49.85 -160.37,116.57 -245.85,199.02 -80.69,84.47 -166.17,183.04 -249.37,298.34l0 2138.86 -712.49 0 0 -3347.95z"/>
  <path class="fil1" d="M5291.29 17674.89c-158.23,124.37 -318.35,220.67 -480.99,287.89 -182.15,76.29 -366.44,114.94 -548.97,114.94 -314.45,0 -567.73,-88.5 -770.64,-266.24 -103.73,-90.25 -180.01,-193.48 -231.62,-305.39 -48.98,-117.94 -79.81,-241.94 -79.81,-381.55l0 -0.88c0,-176.11 41.29,-336.1 120.96,-481.37 13.1,-22.53 26.95,-43.43 41.68,-68.99 77.67,-114.93 180.01,-219.03 313.06,-306.14l1.76 -3.02c74.15,-52.11 159.24,-98.43 249.37,-135.82 87.24,-40.28 181.77,-75.03 283.24,-100.95 202.54,-52.12 428,-78.56 677.36,-78.56l298.85 0 0 -211.61 0 -4.27c0,-104.62 -13.47,-195.62 -35.63,-269.9 -4.28,-13.34 -8.69,-22.41 -11.71,-33.36 -20.39,-55.88 -51.11,-98.81 -83.58,-129.65l0 -5.54 -4.91 0c-9.07,-11.83 -23.8,-21.28 -39.03,-28.7 -10.82,-12.96 -29.83,-22.53 -45.44,-29.46 -89.38,-45.19 -213.87,-69.87 -371.73,-69.87 -165.16,0 -332.58,24.67 -498.75,70.74 -173.46,45.45 -343.9,116.19 -522.02,207.2l-92.91 48.21 0 -102.84 0 -501.77 0 -43.67 43.81 -14.86 2.64 0c61.56,-20.77 119.21,-44.18 172.58,-59.79 58.92,-20.4 116.7,-35.13 175.24,-50.35 291.79,-78.42 572.38,-117.45 837.36,-117.45 429.76,0 732.01,87.99 912.89,263.21 26.94,22.91 50.35,50.23 72.01,81.57 25.17,30.33 43.43,62.81 64.19,97.93 90.64,173.97 137.09,406.85 137.09,705.56l0 1347.44c0,96.8 6.41,173.47 14.23,238.04 11.32,56.01 22.15,98.57 40.78,127.15 2.14,6.04 5.29,13.84 9.57,18.62 8.69,4.78 12.22,12.6 18.26,15.62 33.36,27.31 81.95,42.04 153.07,42.04 12.59,0 36,-4.78 61.18,-8.69 28.96,-4.65 64.96,-12.08 107.12,-20.39l62.44 -14.23 0 492.7c-20.39,9.44 -40.41,13.35 -58.53,16.37 -28.7,8.3 -50.85,16.49 -79.81,23.41 -119.71,33.86 -225.2,49.48 -302.75,49.48 -105.36,0 -199.9,-18.26 -281.09,-51.99 -29.83,-14.86 -57.65,-27.82 -78.42,-44.32 -109.27,-69.36 -191.72,-169.94 -252.39,-306.52zm-125.75 -513.98l0 0 0 -719.91 -112.3 0c-394.26,0 -681.77,50.73 -873.86,157.86 -176.11,94.54 -266.37,235.9 -266.37,427.62l0 0.88c0,70.24 11.71,133.56 33.48,188.7 5.66,6.55 9.06,14.73 12.09,26.44 21.26,43.31 50.34,81.57 89.37,115.3l0 1.76c11.71,11.71 26.81,20.78 39.91,30.34 12.96,11.7 28.2,19.51 42.42,30.33 78.05,41.66 172.58,65.08 282.86,65.08 230.62,0 483.89,-110.14 752.4,-324.4z"/>
  <polygon class="fil2" points="4020.65,2970.67 4020.65,1762.47 4020.65,1641.49 4143.39,1641.49 5288.65,1641.49 5408.75,1641.49 5408.75,1762.47 5408.75,2970.67 5408.75,3093.04 5288.65,3093.04 4143.39,3093.04 4020.65,3093.04 "/>
  <path class="fil2" d="M10848.33 10793.72c-287.01,50.34 -570.61,88.11 -850.45,113.28 -286.63,26.81 -561.56,39.41 -828.68,39.41 -472.68,0 -874.75,-45.07 -1200.91,-128.4 -336.48,-91.02 -600.07,-227.22 -783.98,-408.87l-2.26 0c-47.59,-51.61 -97.93,-109.77 -146.91,-176.61 -42.92,-64.19 -81.19,-134.44 -119.71,-210.34 -179.13,-377.26 -271.9,-909.36 -271.9,-1595.42l0 -3189.21 0 -854.74 0 -1289.78 1393.39 0 0 1164.4 2661.89 0 124.37 0 0 125.38 0 872.86 0 120.97 -124.37 0 -2661.89 0 0 3234.02 0 12.96c0,172.58 4.28,316.98 15.6,434.54l4.28 54.64 3.91 0c7.42,84.96 22.53,152.18 36.5,202.04 4.27,13.97 10.32,30.45 18.62,44.31 5.16,13.47 14.73,26.44 21.28,40.28l1.64 1.39c43.43,73.26 110.64,139.99 197.38,202.93 116.69,75.9 266.24,134.81 443.23,176.86 178.24,37.39 389.85,62.56 632.68,62.56l7.8 0c229.86,0 462.75,-14.73 692.97,-40.78l0 -1.76 114.18 -12.21 0 1c188.94,-26.56 380.66,-62.05 572.38,-106.37l151.32 -35.12 0 154.46 0 868.58 0 103.73 -102.35 19.01z"/>
  <polygon class="fil2" points="4023.17,10679.29 4023.17,5371.99 1860.02,5371.99 1736.91,5371.99 1736.91,5249.26 1736.91,4391.88 1736.91,4268.65 1860.02,4268.65 5288.65,4268.65 5410.5,4268.65 5410.5,4391.88 5410.5,10679.29 5410.5,10799.38 5288.65,10799.38 4145.91,10799.38 4023.17,10799.38 "/>
 </g>
</svg>
